<?xml version="1.0" encoding="utf-8"?>
<!-- Generator: Adobe Illustrator 16.0.0, SVG Export Plug-In . SVG Version: 6.00 Build 0)  -->
<!DOCTYPE svg PUBLIC "-//W3C//DTD SVG 1.1//EN" "http://www.w3.org/Graphics/SVG/1.1/DTD/svg11.dtd">
<svg version="1.1" id="图层_1" xmlns="http://www.w3.org/2000/svg" xmlns:xlink="http://www.w3.org/1999/xlink" x="0px" y="0px"
	 width="595.28px" height="841.89px" viewBox="0 0 595.28 841.89" enable-background="new 0 0 595.28 841.89" xml:space="preserve">
<g id="XMLID_249_">
	<path id="XMLID_248_" fill="#003DA6" d="M185.381,176.463h-24.385c-8.508,0-15.431-6.924-15.431-15.434v-11.465
		c0-8.511,6.923-15.434,15.431-15.434h32.995c8.508,0,15.432,6.923,15.432,15.434v5.735c0,1.783-1.446,3.226-3.229,3.226
		c-1.783,0-3.229-1.443-3.229-3.226v-5.735c0-4.949-4.027-8.976-8.973-8.976h-32.995c-4.946,0-8.973,4.027-8.973,8.976v11.465
		c0,4.949,4.027,8.976,8.973,8.976h24.385c1.784,0,3.227,1.445,3.227,3.229S187.165,176.463,185.381,176.463"/>
	<path id="XMLID_247_" fill="#003DA6" d="M235.378,176.463h-32.995c-8.508,0-15.431-6.924-15.431-15.434v-5.73
		c0-1.784,1.445-3.229,3.229-3.229s3.229,1.445,3.229,3.229v5.73c0,4.949,4.026,8.976,8.973,8.976h32.995
		c4.946,0,8.976-4.026,8.976-8.976v-11.465c0-4.949-4.03-8.976-8.976-8.976h-22.233c-1.784,0-3.224-1.445-3.224-3.229
		c0-1.783,1.44-3.229,3.224-3.229h22.233c8.51,0,15.431,6.923,15.431,15.434v11.465
		C250.809,169.539,243.888,176.463,235.378,176.463"/>
</g>
<g id="XMLID_209_">
	<path id="XMLID_246_" fill="#003DA6" d="M271.89,137.426l-1.695,1.453c-1.155-1.096-2.454-1.644-3.895-1.644
		c-1.221,0-2.245,0.373-3.079,1.124c-0.832,0.747-1.249,1.671-1.249,2.77c0,0.764,0.183,1.443,0.552,2.039
		c0.37,0.591,0.894,1.058,1.568,1.396c0.675,0.337,1.426,0.508,2.25,0.508c0.705,0,1.348-0.121,1.93-0.355
		c0.582-0.238,1.223-0.667,1.923-1.29l1.644,1.541c-0.943,0.83-1.831,1.401-2.668,1.721c-0.838,0.32-1.794,0.479-2.871,0.479
		c-1.979,0-3.601-0.563-4.863-1.695c-1.261-1.129-1.892-2.579-1.892-4.346c0-1.145,0.288-2.162,0.863-3.049
		c0.572-0.888,1.398-1.602,2.468-2.142s2.226-0.81,3.462-0.81c1.05,0,2.063,0.199,3.035,0.596
		C270.345,136.12,271.183,136.69,271.89,137.426"/>
	<path id="XMLID_243_" fill="#003DA6" d="M280.295,135.122c1.801,0,3.351,0.588,4.649,1.761c1.296,1.175,1.946,2.609,1.946,4.296
		c0,1.673-0.639,3.091-1.92,4.252c-1.278,1.157-2.833,1.737-4.659,1.737c-1.914,0-3.501-0.596-4.766-1.785
		c-1.267-1.191-1.9-2.606-1.9-4.242c0-1.096,0.296-2.104,0.885-3.025c0.59-0.919,1.398-1.649,2.43-2.186
		C277.992,135.392,279.104,135.122,280.295,135.122 M280.267,137.258c-1.179,0-2.17,0.371-2.974,1.105
		c-0.804,0.741-1.207,1.678-1.207,2.815c0,1.271,0.506,2.271,1.519,3.012c0.788,0.574,1.689,0.863,2.706,0.863
		c1.151,0,2.13-0.373,2.94-1.122c0.808-0.748,1.213-1.671,1.213-2.769c0-1.088-0.405-2.013-1.223-2.771
		C282.427,137.637,281.435,137.258,280.267,137.258"/>
	<polygon id="XMLID_242_" fill="#003DA6" points="289.452,135.41 291.781,135.41 297.232,142.957 297.232,135.41 299.658,135.41 
		299.658,146.88 297.324,146.88 291.876,139.356 291.876,146.88 289.452,146.88 	"/>
	<polygon id="XMLID_241_" fill="#003DA6" points="302.842,135.41 305.171,135.41 310.624,142.957 310.624,135.41 313.048,135.41 
		313.048,146.88 310.716,146.88 305.269,139.356 305.269,146.88 302.842,146.88 	"/>
	<polygon id="XMLID_240_" fill="#003DA6" points="316.234,135.41 323.19,135.41 323.19,137.545 318.644,137.545 318.644,139.618 
		323.19,139.618 323.19,141.718 318.644,141.718 318.644,144.734 323.19,144.734 323.19,146.88 316.234,146.88 	"/>
	<path id="XMLID_239_" fill="#003DA6" d="M337.43,137.426l-1.695,1.453c-1.153-1.096-2.454-1.644-3.895-1.644
		c-1.221,0-2.246,0.373-3.079,1.124c-0.832,0.747-1.249,1.671-1.249,2.77c0,0.764,0.183,1.443,0.554,2.039
		c0.369,0.591,0.892,1.058,1.566,1.396s1.425,0.508,2.249,0.508c0.705,0,1.35-0.121,1.93-0.355c0.584-0.238,1.223-0.667,1.924-1.29
		l1.646,1.541c-0.945,0.83-1.832,1.401-2.67,1.721c-0.838,0.32-1.793,0.479-2.869,0.479c-1.98,0-3.601-0.563-4.863-1.695
		c-1.263-1.129-1.894-2.579-1.894-4.346c0-1.145,0.29-2.162,0.865-3.049c0.571-0.888,1.396-1.602,2.466-2.142
		c1.071-0.54,2.228-0.81,3.462-0.81c1.052,0,2.063,0.199,3.037,0.596C335.887,136.12,336.725,136.69,337.43,137.426"/>
	<polygon id="XMLID_238_" fill="#003DA6" points="338.563,135.41 345.603,135.41 345.603,137.562 343.283,137.562 343.283,146.88 
		340.822,146.88 340.822,137.562 338.563,137.562 	"/>
	<rect id="XMLID_237_" x="347.361" y="135.41" fill="#003DA6" width="2.41" height="11.47"/>
	<polygon id="XMLID_236_" fill="#003DA6" points="352.772,135.41 355.102,135.41 360.555,142.957 360.555,135.41 362.979,135.41 
		362.979,146.88 360.646,146.88 355.198,139.356 355.198,146.88 352.772,146.88 	"/>
	<path id="XMLID_235_" fill="#003DA6" d="M377.921,137.279l-1.707,1.521c-1.084-1.028-2.343-1.541-3.782-1.541
		c-1.255,0-2.305,0.373-3.15,1.12c-0.85,0.75-1.271,1.66-1.271,2.728c0,1.11,0.437,2.048,1.316,2.817
		c0.879,0.768,1.963,1.153,3.254,1.153c0.838,0,1.544-0.159,2.12-0.474c0.575-0.318,1.038-0.812,1.392-1.491h-3.69v-2.05h6.41
		l0.018,0.484c0,1.002-0.29,1.955-0.867,2.853c-0.578,0.899-1.324,1.588-2.246,2.061c-0.917,0.473-1.992,0.711-3.228,0.711
		c-1.324,0-2.503-0.262-3.542-0.779c-1.036-0.516-1.857-1.254-2.461-2.209c-0.6-0.959-0.903-1.987-0.903-3.095
		c0-1.521,0.558-2.839,1.674-3.962c1.319-1.334,3.041-2.003,5.161-2.003c1.107,0,2.146,0.185,3.112,0.554
		C376.343,135.989,377.139,136.521,377.921,137.279"/>
	<polygon id="XMLID_234_" fill="#003DA6" points="385.298,135.41 392.337,135.41 392.337,137.562 390.019,137.562 390.019,146.88 
		387.557,146.88 387.557,137.562 385.298,137.562 	"/>
	<path id="XMLID_231_" fill="#003DA6" d="M398.157,135.41h2.458l4.901,11.47h-2.518l-0.998-2.362H396.8l-1.036,2.362h-2.521
		L398.157,135.41z M399.402,138.451l-1.709,3.938h3.408L399.402,138.451z"/>
	<polygon id="XMLID_230_" fill="#003DA6" points="407.658,135.41 410.084,135.41 410.084,144.797 413.618,144.797 413.618,146.88 
		407.658,146.88 	"/>
	<polygon id="XMLID_229_" fill="#003DA6" points="415.74,135.41 422.696,135.41 422.696,137.545 418.148,137.545 418.148,139.618 
		422.696,139.618 422.696,141.718 418.148,141.718 418.148,144.734 422.696,144.734 422.696,146.88 415.74,146.88 	"/>
	<polygon id="XMLID_228_" fill="#003DA6" points="425.23,135.41 427.56,135.41 433.011,142.957 433.011,135.41 435.437,135.41 
		435.437,146.88 433.103,146.88 427.657,139.356 427.657,146.88 425.23,146.88 	"/>
	<polygon id="XMLID_227_" fill="#003DA6" points="437.358,135.41 444.399,135.41 444.399,137.562 442.077,137.562 442.077,146.88 
		439.617,146.88 439.617,137.562 437.358,137.562 	"/>
	<path id="XMLID_226_" fill="#003DA6" d="M453.018,136.97l-1.797,1.426c-0.632-0.791-1.272-1.184-1.928-1.184
		c-0.317,0-0.577,0.076-0.78,0.229c-0.2,0.155-0.304,0.328-0.304,0.518c0,0.194,0.071,0.373,0.219,0.548
		c0.194,0.227,0.788,0.719,1.778,1.471c0.925,0.697,1.485,1.137,1.684,1.32c0.492,0.447,0.84,0.874,1.044,1.283
		c0.209,0.405,0.31,0.854,0.31,1.334c0,0.941-0.363,1.721-1.083,2.333c-0.725,0.613-1.668,0.921-2.827,0.921
		c-0.909,0-1.697-0.201-2.372-0.599c-0.675-0.401-1.251-1.031-1.731-1.888l2.039-1.108c0.613,1.017,1.319,1.521,2.116,1.521
		c0.417,0,0.766-0.109,1.052-0.33c0.282-0.216,0.425-0.469,0.425-0.754c0-0.258-0.109-0.52-0.321-0.778
		c-0.215-0.262-0.686-0.659-1.416-1.195c-1.388-1.017-2.284-1.805-2.689-2.358c-0.405-0.552-0.607-1.104-0.607-1.656
		c0-0.798,0.335-1.477,1.011-2.047c0.675-0.569,1.504-0.855,2.495-0.855c0.635,0,1.238,0.135,1.816,0.401
		C451.725,135.783,452.347,136.267,453.018,136.97"/>
</g>
<g id="XMLID_36_">
	<path id="XMLID_223_" fill="#003DA6" d="M261.623,150.083h1.761c0.98,0,1.645,0.036,1.993,0.108c0.524,0.108,0.95,0.34,1.276,0.696
		c0.333,0.354,0.496,0.791,0.496,1.311c0,0.432-0.116,0.814-0.34,1.142c-0.226,0.328-0.55,0.576-0.971,0.742
		c-0.42,0.168-0.998,0.252-1.743,0.256l3.177,3.691h-1.092l-3.173-3.691h-0.5v3.691h-0.884V150.083z M262.507,150.859v2.701
		l1.521,0.012c0.59,0,1.026-0.052,1.309-0.152c0.284-0.1,0.502-0.26,0.662-0.482c0.158-0.222,0.234-0.47,0.234-0.744
		c0-0.266-0.078-0.508-0.238-0.726c-0.16-0.218-0.37-0.375-0.63-0.466c-0.26-0.094-0.696-0.142-1.3-0.142H262.507z"/>
	<polygon id="XMLID_222_" fill="#003DA6" points="280.276,150.083 285.336,150.083 285.336,150.859 281.158,150.859 
		281.158,153.353 285.3,153.353 285.3,154.128 281.158,154.128 281.158,157.252 285.3,157.252 285.3,158.028 280.276,158.028 	"/>
	<path id="XMLID_221_" fill="#003DA6" d="M306.316,151.558l-0.696,0.479c-0.385-0.449-0.845-0.789-1.385-1.021
		c-0.538-0.232-1.129-0.348-1.772-0.348c-0.707,0-1.356,0.152-1.957,0.456s-1.066,0.712-1.396,1.224
		c-0.328,0.515-0.496,1.091-0.496,1.733c0,0.969,0.368,1.777,1.108,2.425c0.738,0.648,1.671,0.973,2.795,0.973
		c1.234,0,2.271-0.436,3.104-1.309l0.696,0.476c-0.44,0.504-0.99,0.895-1.649,1.172c-0.656,0.272-1.393,0.41-2.204,0.41
		c-1.545,0-2.764-0.462-3.658-1.386c-0.747-0.784-1.121-1.725-1.121-2.833c0-1.163,0.452-2.141,1.36-2.934
		c0.904-0.796,2.041-1.192,3.403-1.192c0.826,0,1.571,0.146,2.235,0.44C305.346,150.617,305.892,151.029,306.316,151.558"/>
	<path id="XMLID_218_" fill="#003DA6" d="M319.365,150.083h1.761c0.98,0,1.643,0.036,1.99,0.108c0.526,0.108,0.951,0.34,1.278,0.696
		c0.331,0.354,0.495,0.791,0.495,1.311c0,0.432-0.114,0.814-0.341,1.142c-0.226,0.328-0.55,0.576-0.97,0.742
		c-0.421,0.168-0.999,0.252-1.741,0.256l3.178,3.691h-1.093l-3.173-3.691h-0.501v3.691h-0.884V150.083z M320.249,150.859v2.701
		l1.521,0.012c0.588,0,1.024-0.052,1.309-0.152c0.281-0.1,0.5-0.26,0.66-0.482c0.16-0.222,0.235-0.47,0.235-0.744
		c0-0.266-0.08-0.508-0.239-0.726c-0.161-0.218-0.371-0.375-0.631-0.466c-0.26-0.094-0.694-0.142-1.299-0.142H320.249z"/>
	<path id="XMLID_217_" fill="#003DA6" d="M338.04,150.083h0.885v4.796c0,0.57,0.012,0.924,0.036,1.066
		c0.044,0.312,0.146,0.576,0.307,0.784c0.159,0.212,0.405,0.388,0.737,0.53c0.333,0.142,0.665,0.214,1.001,0.214
		c0.294,0,0.574-0.056,0.84-0.168c0.269-0.112,0.495-0.268,0.675-0.466c0.178-0.196,0.31-0.437,0.394-0.716
		c0.061-0.202,0.093-0.619,0.093-1.245v-4.796h0.882v4.796c0,0.71-0.078,1.283-0.229,1.723c-0.156,0.437-0.465,0.818-0.925,1.141
		c-0.464,0.324-1.024,0.488-1.679,0.488c-0.715,0-1.322-0.156-1.831-0.46c-0.508-0.304-0.848-0.712-1.02-1.214
		c-0.11-0.312-0.165-0.871-0.165-1.677V150.083z"/>
	<rect id="XMLID_216_" x="357.166" y="150.083" fill="#003DA6" width="0.883" height="7.945"/>
	<polygon id="XMLID_215_" fill="#003DA6" points="370.428,150.859 370.428,150.083 375.264,150.083 375.264,150.859 
		373.294,150.859 373.294,158.03 372.396,158.03 372.396,150.859 	"/>
	<polygon id="XMLID_214_" fill="#003DA6" points="387.368,158.03 388.633,150.083 388.776,150.083 392.366,156.604 395.919,150.083 
		396.062,150.083 397.332,158.03 396.468,158.03 395.596,152.346 392.472,158.03 392.246,158.03 389.087,152.304 388.221,158.03 	
		"/>
	<polygon id="XMLID_213_" fill="#003DA6" points="410.305,150.083 415.365,150.083 415.365,150.859 411.188,150.859 
		411.188,153.353 415.327,153.353 415.327,154.128 411.188,154.128 411.188,157.252 415.327,157.252 415.327,158.028 
		410.305,158.028 	"/>
	<polygon id="XMLID_212_" fill="#003DA6" points="428.128,158.03 428.128,150.083 428.32,150.083 434.197,156.175 434.197,150.083 
		435.066,150.083 435.066,158.03 434.869,158.03 429.038,152.012 429.038,158.03 	"/>
	<polygon id="XMLID_211_" fill="#003DA6" points="447.572,150.859 447.572,150.083 452.408,150.083 452.408,150.859 
		450.438,150.859 450.438,158.03 449.541,158.03 449.541,150.859 	"/>
</g>
<line id="XMLID_210_" fill="none" stroke="#003DA6" stroke-width="0.5" stroke-miterlimit="10" x1="258.585" y1="161.389" x2="454.502" y2="161.389"/>
<g id="XMLID_327_">
	<path id="XMLID_397_" fill="#003DA6" d="M260.982,170.829v-2.86h-1.164v-2.424H270v2.424h-1.212v2.909h-3.83l-0.436,0.437h5.963
		v1.115h-2.23c0.743,0.582,1.551,0.97,2.424,1.164l-0.194,0.243c-0.388,0.517-0.63,0.889-0.727,1.115
		c-0.097-0.064-0.226-0.146-0.388-0.242c-0.323-0.194-0.582-0.355-0.776-0.485v1.018c0.097,0.549-0.63,0.792-2.182,0.727
		c0-0.485-0.113-0.872-0.339-1.164c0.549,0.033,0.84-0.031,0.873-0.194v-0.485h-1.212v2.328h-1.648v-2.328h-1.066v1.794h-1.6v-1.891
		c-0.518,0.453-0.954,0.744-1.309,0.873c-0.324-0.452-0.663-0.808-1.018-1.066c0.873-0.388,1.68-0.856,2.424-1.406h-2.182v-1.115
		h3.297c0.129-0.097,0.258-0.243,0.388-0.437c0,0.033,0.016,0.017,0.048-0.048H260.982z M261.419,167.193h6.884v-0.436h-6.884
		V167.193z M267.188,168.647v-0.436h-4.654v0.436H267.188z M262.534,169.423v0.436h4.654v-0.436H262.534z M265.733,173.107h1.357
		c-0.065-0.097-0.162-0.21-0.291-0.339c-0.162-0.161-0.275-0.274-0.339-0.339h-2.909c-0.13,0.162-0.339,0.372-0.631,0.63
		c0.226-0.194,0.194-0.177-0.097,0.048h1.26v-0.388h1.212c0.388,0,0.549,0.081,0.485,0.243
		C265.75,173.027,265.733,173.076,265.733,173.107z"/>
	<path id="XMLID_391_" fill="#003DA6" d="M280.2,167.726c0.291-0.969,0.517-1.842,0.679-2.618c1.163,0.259,1.761,0.404,1.793,0.437
		c0,0.032-0.032,0.065-0.097,0.097c-0.291,0.388-0.63,1.083-1.018,2.084h1.309v1.261h-2.133v1.551h2.424v1.309h-2.327
		c0.291,1.422,1.164,2.489,2.618,3.2c-0.356,0.419-0.728,0.889-1.115,1.406c-0.775-0.615-1.535-1.503-2.278-2.667
		c-0.614,1.1-1.375,1.988-2.279,2.667c-0.259-0.324-0.501-0.599-0.727-0.825v0.776h-1.454v-1.891
		c-0.97,0.227-2.085,0.484-3.345,0.775l-0.388-1.503l1.115-0.145V167h-0.873v-1.309h5.333V167h-0.388v5.914
		c0.129-0.031,0.371-0.08,0.727-0.146v1.261c-0.065,0-0.307,0.065-0.727,0.194v0.97c1.292-0.84,2.003-1.956,2.133-3.345h-1.794
		v-1.309h1.891v-1.551h-1.793v-1.261H280.2z M275.595,167h-1.261v1.309h1.261V167z M274.334,169.472v1.309h1.261v-1.309H274.334z
		 M275.643,171.944h-1.309v1.454c0.452-0.097,0.889-0.162,1.309-0.194V171.944z M277.921,165.642l1.309-0.485l0.776,1.843
		l-1.309,0.582L277.921,165.642z"/>
	<path id="XMLID_388_" fill="#003DA6" d="M284.583,170.199c2.618-1.325,4.185-2.989,4.703-4.993
		c1.454,0.097,2.165,0.178,2.133,0.243c0.032,0.032,0.016,0.097-0.048,0.193c-0.097,0.13-0.145,0.227-0.145,0.291
		c1.066,1.746,2.73,2.925,4.993,3.539c-0.485,0.484-0.841,1.051-1.066,1.697c-1.875-0.743-3.475-2.036-4.8-3.878
		c-0.873,1.357-2.392,2.699-4.557,4.024C285.601,170.991,285.196,170.62,284.583,170.199z M289.964,174.853v-5.381h1.115
		c0.42,0,0.614,0.033,0.582,0.097c0,0.033,0,0.081,0,0.145c-0.065,0.194-0.097,0.42-0.097,0.679v1.115h3.005v1.309h-3.005v2.036
		h4.072v1.26h-10.569v-1.26h2.084v-3.976h0.824c0.549,0,0.808,0.033,0.776,0.097c0,0.032,0,0.065,0,0.097
		c-0.065,0.162-0.097,0.421-0.097,0.776v3.006H289.964z"/>
	<path id="XMLID_386_" fill="#003DA6" d="M299.631,167.775c0.452,1.229,0.904,2.78,1.357,4.654v-6.933h0.921
		c0.646,0,0.904,0.065,0.775,0.194c-0.097,0.291-0.145,0.63-0.145,1.018v7.951h0.969v-9.163h1.019c0.582,0,0.84,0.065,0.775,0.194
		c-0.097,0.323-0.162,0.679-0.193,1.066v5.624c0.581-1.164,1.018-2.537,1.309-4.121c0.032-0.291,0.064-0.468,0.097-0.534
		c0.517,0.065,1.18,0.292,1.988,0.679c-0.098,0.163-0.242,0.534-0.437,1.115c-0.647,1.584-1.229,2.877-1.745,3.878l-0.291-0.097
		c-0.421-0.194-0.711-0.307-0.873-0.339v1.648h3.394v1.309h-11.004v-1.309h3.442v-1.648c-0.873,0.323-1.374,0.484-1.503,0.484
		c-0.032-0.097-0.065-0.226-0.097-0.388c-0.453-2.197-0.954-3.781-1.503-4.751C298.758,168.05,299.34,167.872,299.631,167.775z"/>
	<path id="XMLID_380_" fill="#003DA6" d="M310.461,168.018c0.743-1.001,1.293-1.971,1.648-2.909c0.711,0.065,1.244,0.13,1.6,0.194
		c0.129,0,0.178,0.048,0.146,0.146c0,0.032-0.048,0.097-0.146,0.193c-0.097,0.163-0.193,0.291-0.291,0.388h2.521v1.212h-1.503
		c0.226,0.517,0.323,0.824,0.291,0.921c0,0.033-0.469,0.178-1.406,0.437c0-0.032-0.081-0.485-0.242-1.357h-0.388
		c-0.388,0.582-0.711,1.035-0.97,1.357L310.461,168.018z M316.667,168.163l0.048,0.534h4.46v2.181h-1.503v-1.115h-7.708v1.066
		h-1.454v-2.133h4.557c-0.064-0.129-0.145-0.323-0.242-0.582c0-0.064,0.404-0.113,1.212-0.146c-0.064-0.032-0.178-0.097-0.339-0.194
		c0.581-0.873,0.985-1.746,1.212-2.618c0.679,0.033,1.195,0.082,1.551,0.146c0.098,0,0.162,0.033,0.194,0.097
		c0,0.033-0.032,0.097-0.097,0.194c-0.098,0.097-0.194,0.242-0.291,0.436h2.908v1.212h-1.6l0.291,0.97l-1.309,0.388
		c-0.098-0.258-0.243-0.71-0.437-1.357h-0.437c-0.291,0.42-0.517,0.776-0.679,1.066C316.974,168.308,316.86,168.26,316.667,168.163z
		 M314.049,176.404h-1.552v-6.206h6.69v2.569h-5.139v0.437h5.526v3.151h-1.503v-0.533h-4.023V176.404z M317.685,171.75v-0.484
		h-3.636v0.484H317.685z M318.072,174.901v-0.582h-4.023v0.582H318.072z"/>
	<path id="XMLID_373_" fill="#003DA6" d="M324.442,167.193h-1.503v-1.26h4.121v1.26h-1.163v2.085h1.114v1.309h-1.114v2.327
		c0.129-0.031,0.307-0.08,0.533-0.146c0.291-0.097,0.517-0.177,0.679-0.242c0,0.129,0.016,0.308,0.049,0.533
		c0.031,0.55,0.048,0.856,0.048,0.921c-1.261,0.388-2.505,0.808-3.732,1.26c-0.26-0.485-0.469-1.018-0.631-1.6
		c0.194-0.065,0.469-0.129,0.824-0.194c0.355-0.097,0.613-0.161,0.775-0.194v-2.666h-1.405v-1.309h1.405V167.193z M327.497,173.786
		v-1.26h2.182v-0.873h-2.327v-6.012h6.351v6.012h-2.569v0.873h2.473v1.26h-2.473v1.018h3.103v1.261h-7.659v-1.261h3.103v-1.018
		H327.497z M328.806,166.902v1.163h0.873v-1.163H328.806z M328.806,169.278v1.115h0.873v-1.115H328.806z M331.133,166.902v1.163
		h1.019v-1.163H331.133z M331.133,170.393h1.019v-1.115h-1.019V170.393z"/>
	<path id="XMLID_368_" fill="#003DA6" d="M335.612,170.877c0-0.064,0.113-0.161,0.339-0.291c0.84-0.549,1.762-1.292,2.764-2.23
		c0.226,0.42,0.501,0.824,0.824,1.212c-0.872,0.775-1.648,1.535-2.327,2.278c-0.193,0.259-0.323,0.388-0.388,0.388
		C336.274,171.718,335.871,171.266,335.612,170.877z M338.133,168.308c-0.614-0.646-1.309-1.164-2.084-1.551
		c0.129-0.194,0.339-0.452,0.63-0.775c0.194-0.226,0.34-0.404,0.437-0.533c1.26,0.905,1.971,1.486,2.133,1.745
		C338.86,167.549,338.488,167.92,338.133,168.308z M339.055,168.018c0.937-0.84,1.566-1.826,1.891-2.958
		c0.775,0.097,1.405,0.242,1.891,0.436c0.031,0.097-0.049,0.243-0.242,0.437c-0.194,0.194-0.34,0.372-0.437,0.533h4.218
		c-0.13,0.679-0.372,1.6-0.728,2.764c-0.388-0.162-0.905-0.274-1.552-0.339c0.098-0.226,0.194-0.534,0.291-0.921
		c0.032-0.097,0.049-0.177,0.049-0.243h-1.212c0.032,0.809,0.42,1.503,1.163,2.085c0.711,0.453,1.567,0.76,2.569,0.921
		c-0.42,0.453-0.775,0.969-1.066,1.551c-1.551-0.646-2.65-1.422-3.296-2.328c-0.582,0.776-1.326,1.406-2.23,1.891h4.46v4.557h-1.648
		v-0.63h-4.023v0.63H337.6v-4.557h1.697c-0.194-0.323-0.453-0.598-0.776-0.824c1.358-0.388,2.263-0.985,2.716-1.793
		c0.129-0.226,0.242-0.614,0.339-1.164c0-0.161,0.017-0.291,0.049-0.387h-0.388c-0.291,0.42-0.647,0.808-1.067,1.163
		C339.781,168.454,339.409,168.179,339.055,168.018z M343.175,174.562v-1.406h-4.023v1.406H343.175z"/>
	<path id="XMLID_362_" fill="#003DA6" d="M351.242,169.326c1.001-1.357,1.616-2.795,1.843-4.314
		c1.324,0.227,2.003,0.388,2.036,0.484l-0.049,0.097c-0.13,0.227-0.308,0.566-0.533,1.018h4.509v8.193
		c0.29,1.195-0.614,1.761-2.715,1.697c-0.163-0.744-0.308-1.26-0.437-1.551c1.195,0.13,1.713-0.113,1.551-0.727v-6.302h-3.539
		c-0.032,0.032-0.064,0.097-0.097,0.194c-0.033,0.065-0.113,0.227-0.242,0.485h3.199v6.011h-1.503v-0.485h-1.405v0.921h-1.406
		v-1.357c-0.97,0.97-1.729,1.745-2.278,2.327c-0.065-0.097-0.179-0.259-0.34-0.485c-0.355-0.419-0.613-0.743-0.775-0.97
		c0.485-0.291,0.711-0.71,0.679-1.26v-3.297h-1.406v-1.406h2.909V169.326z M350.079,168.018c-0.228-0.679-0.518-1.471-0.873-2.376
		c0.194-0.064,0.468-0.146,0.824-0.242c0.355-0.129,0.613-0.21,0.775-0.243c0.291,0.582,0.582,1.39,0.872,2.424
		C350.903,167.775,350.37,167.92,350.079,168.018z M352.503,173.302v-3.151c-0.227,0.323-0.355,0.484-0.388,0.484
		c-0.388-0.387-0.679-0.613-0.873-0.679v3.055c0.258-0.258,0.517-0.517,0.775-0.776c0.032,0.065,0.064,0.146,0.098,0.243
		C352.179,172.671,352.309,172.946,352.503,173.302z M355.314,170.732v-0.873h-1.406v0.873H355.314z M353.908,172.865h1.406v-0.97
		h-1.406V172.865z"/>
	<path id="XMLID_360_" fill="#003DA6" d="M367.021,176.355h-0.922c-0.97-1.486-1.438-3.328-1.406-5.526
		c0.064-2.23,0.533-4.088,1.406-5.575h0.922c-0.809,1.551-1.245,3.41-1.31,5.575C365.775,173.027,366.212,174.87,367.021,176.355z"
		/>
	<path id="XMLID_358_" fill="#003DA6" d="M370.011,175.822v-1.309h4.267v-9.114h0.873c0.613,0,0.937,0.049,0.969,0.146
		c0,0.065-0.016,0.146-0.048,0.242c-0.065,0.227-0.098,0.501-0.098,0.824v1.891h3.927v1.454h-3.927v4.558h5.042v1.309H370.011z"/>
	<path id="XMLID_350_" fill="#003DA6" d="M382.538,169.326l0.922-1.261c0.581,0.356,1.228,0.825,1.939,1.406l-1.019,1.163
		C383.605,169.989,382.991,169.553,382.538,169.326z M385.107,168.793c1.034-0.904,1.795-2.101,2.279-3.587l0.049-0.146
		c0.613,0.065,1.26,0.194,1.938,0.388l-0.048,0.097c-0.162,0.194-0.308,0.404-0.437,0.63h4.557v1.261h-5.381
		c-0.033,0.065-0.097,0.146-0.194,0.243c-0.129,0.194-0.227,0.339-0.29,0.436h5.284c0,0.873-0.033,1.745-0.098,2.618h1.115v1.26
		h-1.163v1.503h0.872v1.309h-0.824c-0.032,0.42-0.097,0.711-0.193,0.873c-0.26,0.582-1.115,0.84-2.569,0.776
		c-0.033-0.518-0.146-0.954-0.34-1.31c0.646,0,1.001,0,1.066,0c0.259-0.031,0.371-0.146,0.34-0.339h-4.993
		c0.031-0.194,0.08-0.5,0.146-0.921c0.161-0.808,0.258-1.422,0.29-1.842h-0.969c-0.485,1.551-0.873,2.957-1.164,4.218l-1.648-1.066
		c0.484-1.001,0.985-2.375,1.503-4.121l0.97,0.582v-0.921h1.454c0.098-0.549,0.161-1.083,0.194-1.6
		c-0.033,0.065-0.114,0.146-0.243,0.243c-0.129,0.129-0.226,0.242-0.291,0.339C386.061,169.423,385.657,169.116,385.107,168.793z
		 M385.205,168.065c-0.033-0.031-0.065-0.064-0.098-0.097c-0.743-0.679-1.341-1.164-1.793-1.455l1.114-1.26
		c0.679,0.42,1.31,0.921,1.891,1.503L385.205,168.065z M387.727,173.544h1.26c-0.032-0.291-0.162-0.727-0.388-1.309
		c0.097-0.032,0.274-0.08,0.533-0.145c0.291-0.032,0.437-0.065,0.437-0.097h-1.6c-0.033,0.162-0.082,0.436-0.146,0.824
		C387.791,173.14,387.758,173.383,387.727,173.544z M388.647,169.666l0.872-0.339h-1.26l-0.194,1.455h0.969
		C388.97,170.361,388.841,169.989,388.647,169.666z M390.489,173.205c-0.097,0.032-0.275,0.081-0.533,0.146
		c-0.484,0.129-0.712,0.194-0.679,0.194h1.939v-1.551h-1.019C390.393,172.446,390.489,172.85,390.489,173.205z M390.586,170.49
		c-0.064,0.033-0.162,0.065-0.29,0.097c-0.26,0.065-0.437,0.129-0.534,0.194h1.503v-1.455h-1.019
		C390.44,169.844,390.554,170.231,390.586,170.49z"/>
	<path id="XMLID_348_" fill="#003DA6" d="M398.363,165.254h0.921c0.873,1.487,1.341,3.345,1.406,5.575
		c0.031,2.198-0.437,4.041-1.406,5.526h-0.921c0.807-1.486,1.244-3.328,1.309-5.526C399.607,168.664,399.17,166.805,398.363,165.254
		z"/>
	<path id="XMLID_344_" fill="#003DA6" d="M405.039,166.466h3.829c0.129-0.258,0.242-0.679,0.34-1.26
		c0.032-0.032,0.048-0.064,0.048-0.097c0.485,0,1.034,0.048,1.649,0.146c0.387,0.065,0.5,0.211,0.339,0.437
		c-0.033,0.065-0.065,0.114-0.098,0.145c-0.096,0.227-0.21,0.437-0.339,0.63h5.236v1.357h-5.866
		c-0.194,0.259-0.389,0.533-0.582,0.824h4.849v6.448c0.225,0.904-0.614,1.357-2.521,1.357c-0.259-0.841-0.437-1.374-0.533-1.6
		c1.066,0.097,1.519-0.032,1.357-0.388v-0.533h-3.491v2.327h-1.551v-5.09c-0.065,0.065-0.146,0.146-0.242,0.243
		c-0.453,0.453-0.905,0.856-1.357,1.212c-0.194-0.226-0.582-0.598-1.164-1.115c0.452,0.356,0.404,0.308-0.146-0.146
		c1.552-0.97,2.698-2.149,3.442-3.539h-3.199V166.466z M409.256,170.732h3.491v-0.776h-3.491V170.732z M412.747,171.896h-3.491
		v0.824h3.491V171.896z"/>
	<path id="XMLID_337_" fill="#003DA6" d="M418.1,176.162v-10.617h3.927c-0.097,1.196-0.372,2.489-0.824,3.878
		c0.549,1.035,0.808,1.907,0.775,2.618c0.162,1.261-0.484,1.972-1.938,2.133c-0.13-0.485-0.309-0.873-0.533-1.164v3.151H418.1z
		 M419.506,166.805v5.769c1.228,0.033,1.292-0.985,0.193-3.054c0.355-0.84,0.582-1.745,0.679-2.715H419.506z M421.687,174.95
		c0-0.032,0.032-0.064,0.098-0.097c0.355-0.291,0.533-0.63,0.533-1.018v-8.242h5.526v5.333h-0.34
		c0.711,0.614,1.067,0.953,1.067,1.018c0,0.032-0.211,0.162-0.63,0.388c-0.551,0.291-1.003,0.55-1.358,0.775
		c0.55,0.711,1.374,1.261,2.473,1.648c-0.55,0.388-0.969,0.873-1.261,1.455c-2.229-1.195-3.409-2.958-3.539-5.284h-0.436v3.199
		l0.824-0.484c0.097,0.42,0.274,0.856,0.533,1.309c-0.776,0.323-1.551,0.743-2.327,1.261c-0.162,0.128-0.259,0.194-0.291,0.194
		C422.527,176.372,422.236,175.887,421.687,174.95z M423.868,166.854v0.776h2.328v-0.776H423.868z M423.868,168.744v0.921h2.328
		v-0.921H423.868z M427.165,170.926h-1.454c0,0.033,0.016,0.081,0.048,0.145c0.032,0.388,0.113,0.679,0.243,0.873
		C426.486,171.622,426.875,171.282,427.165,170.926z"/>
	<path id="XMLID_333_" fill="#003DA6" d="M430.093,170.975c1.907-1.777,2.974-3.442,3.2-4.993c0.904,0.259,1.534,0.436,1.891,0.533
		c0.129,0.065,0.146,0.146,0.048,0.243c-1.357,2.198-2.569,3.976-3.636,5.333C431.208,171.67,430.706,171.298,430.093,170.975z
		 M431.887,174.368l0.097-0.048c1.067-0.323,2.02-1.923,2.86-4.8c0.194,0,0.808,0.162,1.843,0.485
		c0.064,0.065,0.08,0.129,0.048,0.194c-0.711,1.035-1.486,2.344-2.327,3.927c0.098,0.033,0.759,0,1.988-0.097
		c0.549-0.032,0.937-0.048,1.164-0.048c-0.356-0.517-0.761-1.001-1.212-1.455l1.405-0.873c1.164,1.454,2.068,2.748,2.715,3.878
		l-1.794,0.776c-0.064-0.324-0.242-0.696-0.533-1.115c-2.133,0.097-3.911,0.307-5.333,0.63c-0.227,0.032-0.355,0.049-0.388,0.049
		c-0.064-0.033-0.227-0.469-0.484-1.309C431.902,174.465,431.887,174.401,431.887,174.368z M440.37,172.09
		c-1.745-1.228-3.07-3.103-3.975-5.624c-0.097-0.355-0.178-0.582-0.242-0.679c0.388-0.194,0.937-0.322,1.647-0.388
		c0.292,1.713,1.584,3.377,3.879,4.993C441.227,170.846,440.79,171.411,440.37,172.09z"/>
	<path id="XMLID_328_" fill="#003DA6" d="M451.153,168.163v1.309h-7.466v-1.309H451.153z M451.734,167.29h-7.466v-1.455h9.163v8.824
		c0.291,1.357-0.63,1.955-2.764,1.794c-0.064-0.55-0.161-1.035-0.291-1.455c1.002,0.065,1.455-0.161,1.357-0.678V167.29z
		 M448.826,174.95v-0.727h-2.666v0.921h-1.552v-4.848h5.866v4.654H448.826z M448.826,171.605h-2.666v1.357h2.666V171.605z"/>
</g>
</svg>
